<svg width="138.8px" height="282.8px" xmlns="http://www.w3.org/2000/svg" viewBox="180.6 -66.4 138.8 282.8" style="background: rgba(211, 127, 127, 0);" preserveAspectRatio="xMidYMid"><defs><filter id="editing-extrude-glow"><feFlood flood-color="#fff6e6" result="flood-1"></feFlood><feMorphology operator="erode" radius="1" in="SourceAlpha" result="erode"></feMorphology><feComposite operator="in" in="flood-1" in2="erode" result="comp1"></feComposite><feConvolveMatrix order="5,5" divisor="1" in="comp1" result="convolve" kernelMatrix="0 0 0 0 0 0 0 0 0 0 1 1 1 1 1 0 0 0 0 0 0 0 0 0 0"></feConvolveMatrix><feOffset dx="-5" dy="0" in="convolve" result="extrude"></feOffset><feComposite operator="in" in="flood-1" in2="extrude" result="comp-extrude"></feComposite><feFlood flood-color="rgba(0%,0%,0%,0)" result="flood-2"></feFlood><feComposite operator="in" in="flood-2" in2="SourceAlpha" result="comp2"></feComposite><feMorphology operator="dilate" radius="1" in="comp2" result="dilate"></feMorphology><feOffset dx="-7.5" dy="0" in="dilate" result="offset"></feOffset><feGaussianBlur in="offset" stdDeviation="5.8" result="blur"></feGaussianBlur><feComponentTransfer in="blur" result="shadow"><feFuncA type="linear" slope="0.8" intercept="-0.2"></feFuncA></feComponentTransfer><feMerge><feMergeNode in="shadow"></feMergeNode><feMergeNode in="comp-extrude"></feMergeNode><feMergeNode in="SourceGraphic"></feMergeNode></feMerge></filter></defs><g filter="url(#editing-extrude-glow)"><g transform="translate(206.64368343353271, 122.11999702453613)"><path d="M4.09-4.46L4.09-4.46L4.09-4.46Q4.88-6.04 5.74-8.03L5.74-8.03L5.74-8.03Q6.59-10.01 7.32-12.33L7.32-12.33L8.97-16.36L8.97-16.36Q7.87-18.01 6.74-19.93L6.74-19.93L6.74-19.93Q5.62-21.85 4.70-23.86L4.70-23.86L4.70-23.86Q3.78-25.88 3.20-27.89L3.20-27.89L3.20-27.89Q2.62-29.91 2.62-31.80L2.62-31.80L2.62-31.80Q2.62-31.92 3.57-32.01L3.57-32.01L3.57-32.01Q4.52-32.10 5.95-32.17L5.95-32.17L5.95-32.17Q7.39-32.23 9.06-32.26L9.06-32.26L9.06-32.26Q10.74-32.29 12.18-32.32L12.18-32.32L12.18-32.32Q13.61-32.35 14.56-32.38L14.56-32.38L14.56-32.38Q15.50-32.41 15.50-32.41L15.50-32.41L15.50-32.41Q16.91-36.07 18.25-39.37L18.25-39.37L18.25-39.37Q19.59-42.66 20.94-46.02L20.94-46.02L20.94-46.02Q22.28-49.38 23.62-52.89L23.62-52.89L23.62-52.89Q24.96-56.40 26.31-60.42L26.31-60.42L26.31-60.42Q28.87-67.99 31.31-73.73L31.31-73.73L31.31-73.73Q33.75-79.47 35.89-84.41L35.89-84.41L35.89-84.41Q36.13-85.02 36.71-85.54L36.71-85.54L36.71-85.54Q37.29-86.06 37.96-86.43L37.96-86.43L37.96-86.43Q38.64-86.79 39.28-87.04L39.28-87.04L39.28-87.04Q39.92-87.28 40.28-87.40L40.28-87.40L40.28-87.40Q40.53-87.46 42.14-87.95L42.14-87.95L42.14-87.95Q43.76-88.44 45.84-88.99L45.84-88.99L45.84-88.99Q47.91-89.54 49.96-89.97L49.96-89.97L49.96-89.97Q52.00-90.39 53.22-90.39L53.22-90.39L54.32-90.39L54.32-90.39Q55.30-90.39 56.18-89.94L56.18-89.94L56.18-89.94Q57.07-89.48 57.37-88.13L57.37-88.13L57.37-88.13Q60.30-80.63 63.63-71.75L63.63-71.75L63.63-71.75Q66.96-62.87 70.13-52.19L70.13-52.19L70.13-52.19Q71.84-46.45 73.49-41.32L73.49-41.32L73.49-41.32Q75.13-36.19 76.78-31.31L76.78-31.31L76.78-31.31Q78.43-26.43 80.11-21.55L80.11-21.55L80.11-21.55Q81.79-16.66 83.56-11.47L83.56-11.47L83.56-11.47Q84.11-9.28 84.69-8.00L84.69-8.00L84.69-8.00Q85.27-6.71 85.75-5.98L85.75-5.98L85.75-5.98Q86.24-5.25 86.55-4.91L86.55-4.91L86.55-4.91Q86.85-4.58 86.85-4.21L86.85-4.21L86.85-4.21Q86.85-3.85 85.69-3.48L85.69-3.48L72.57 0.79L72.57 0.79Q71.11 1.34 69.58 1.89L69.58 1.89L69.58 1.89Q68.05 2.44 66.71 2.87L66.71 2.87L66.71 2.87Q65.37 3.30 64.36 3.57L64.36 3.57L64.36 3.57Q63.35 3.85 62.93 3.85L62.93 3.85L62.56 3.85L62.56 3.85Q61.71 3.85 61.34 3.33L61.34 3.33L61.34 3.33Q60.97 2.81 60.85 2.32L60.85 2.32L60.85 2.32Q60.24 0.31 59.63-1.31L59.63-1.31L59.63-1.31Q59.02-2.93 58.44-4.55L58.44-4.55L58.44-4.55Q57.86-6.16 57.28-8.00L57.28-8.00L57.28-8.00Q56.70-9.83 56.15-12.33L56.15-12.33L56.15-12.33Q56.03-12.63 55.48-12.85L55.48-12.85L55.48-12.85Q54.93-13.06 54.17-13.18L54.17-13.18L54.17-13.18Q53.41-13.31 52.55-13.34L52.55-13.34L52.55-13.34Q51.70-13.37 50.96-13.37L50.96-13.37L50.96-13.37Q48.65-13.37 47.21-13.34L47.21-13.34L47.21-13.34Q45.78-13.31 44.68-13.28L44.68-13.28L44.68-13.28Q43.58-13.24 42.57-13.21L42.57-13.21L42.57-13.21Q41.56-13.18 40.10-13.18L40.10-13.18L40.10-13.18Q38.33-13.18 36.47-13.21L36.47-13.21L36.47-13.21Q34.61-13.24 33.08-13.31L33.08-13.31L29.60-13.43L29.60-13.43Q28.02-9.03 26.43-5.19L26.43-5.19L26.43-5.19Q24.84-1.34 23.01 2.75L23.01 2.75L23.01 2.75Q22.89 3.23 22.43 3.54L22.43 3.54L22.43 3.54Q21.97 3.85 21.48 3.85L21.48 3.85L21.48 3.85Q21.12 3.85 21.06 3.78L21.06 3.78L21.06 3.78Q15.14 1.65 11.11-0.43L11.11-0.43L11.11-0.43Q7.08-2.50 4.09-4.46ZM45.23-59.33L45.23-59.33L45.23-59.33Q43.76-53.89 42.33-49.47L42.33-49.47L42.33-49.47Q40.89-45.04 39.70-41.63L39.70-41.63L39.70-41.63Q38.51-38.21 37.66-35.86L37.66-35.86L37.66-35.86Q36.80-33.51 36.44-32.23L36.44-32.23L36.44-31.68L36.44-31.68Q36.44-31.31 36.38-31.19L36.38-31.19L51.03-31.19L51.03-31.19Q50.35-34.18 49.59-37.23L49.59-37.23L49.59-37.23Q48.83-40.28 48.10-43.64L48.10-43.64L48.10-43.64Q47.36-47.00 46.63-50.84L46.63-50.84L46.63-50.84Q45.90-54.69 45.23-59.33Z" fill="#27b0ff"></path></g></g><style>text {
  font-size: 64px;
  font-family: Arial Black;
  dominant-baseline: central;
  text-anchor: middle;
}</style></svg>