<?xml version="1.0" encoding="utf-8"?>
<svg viewBox="5.617 28.699 171.99 118.69" xmlns="http://www.w3.org/2000/svg">
  <defs>
    <filter id="editing-extrude-glow">
      <feFlood flood-color="#77c4d3" result="flood-1"/>
      <feMorphology operator="erode" radius="1" in="SourceAlpha" result="erode"/>
      <feComposite operator="in" in="flood-1" in2="erode" result="comp1"/>
      <feConvolveMatrix order="4,4" divisor="1" in="comp1" result="convolve" kernelMatrix="0 0 0 0 0 0 0 0 1 1 1 1 0 0 0 0"/>
      <feOffset dx="-4" dy="0" in="convolve" result="extrude"/>
      <feComposite operator="in" in="flood-1" in2="extrude" result="comp-extrude"/>
      <feFlood flood-color="rgba(0%,0%,0%,0)" result="flood-2"/>
      <feComposite operator="in" in="flood-2" in2="SourceAlpha" result="comp2"/>
      <feMorphology operator="dilate" radius="1" in="comp2" result="dilate"/>
      <feOffset dx="-6" dy="0" in="dilate" result="offset"/>
      <feGaussianBlur in="offset" stdDeviation="5.8" result="blur"/>
      <feComponentTransfer in="blur" result="shadow">
        <feFuncA type="linear" slope="0.8" intercept="-0.2"/>
      </feComponentTransfer>
      <feMerge>
        <feMergeNode in="shadow"/>
        <feMergeNode in="comp-extrude"/>
        <feMergeNode in="SourceGraphic"/>
      </feMerge>
    </filter>
  </defs>
  <g filter="url(#editing-extrude-glow)" transform="matrix(0.967651, 0, 0, 0.979567, -157.502274, -2.233211)" style="">
    <g transform="translate(172.73039093613625, 134.34500312805176)">
      <path d="M142.85-43.19L142.85-43.19L157.49-43.49L157.49-43.49Q162.93-43.49 162.93-42.73L162.93-42.73L162.93-42.73Q162.93-40.77 140.88-39.26L140.88-39.26L140.88-39.26Q126.84-11.78 126.84-1.81L126.84-1.81L126.84-1.81Q126.84 5.13 131.22 5.13L131.22 5.13L131.22 5.13Q132.88 5.13 135.37 3.10L135.37 3.10L135.37 3.10Q137.86 1.06 138.39 1.06L138.39 1.06L138.39 1.06Q138.92 1.06 138.92 1.81L138.92 1.81L138.92 1.81Q138.16 4.53 134.31 6.34L134.31 6.34L134.31 6.34Q130.46 8.15 127.82 8.15L127.82 8.15L127.82 8.15Q125.18 8.15 123.67 7.85L123.67 7.85L123.67 7.85Q120.05 6.49 120.05-0.91L120.05-0.91L120.05-0.91Q120.05-16.16 131.67-39.71L131.67-39.71L113.55-39.26L113.55-39.26Q93.32-19.48 72.93-4.53L72.93-4.53L72.93-4.53Q42.43 17.67 25.22 17.67L25.22 17.67L25.22 17.67Q24.16 17.67 23.10 17.52L23.10 17.52L23.10 17.52Q-0.15 15.55-0.15-6.34L-0.15-6.34L-0.15-6.34Q-0.15-19.33 8.00-33.82L8.00-33.82L8.00-33.82Q18.88-53.15 37.75-66.82L37.75-66.82L37.75-66.82Q56.63-80.48 71.57-80.48L71.57-80.48L71.57-80.48Q86.52-80.48 86.52-69.46L86.52-69.46L86.52-69.46Q86.52-62.06 81.99-53.00L81.99-53.00L81.99-53.00Q77.46-43.94 72.78-41.52L72.78-41.52L72.78-41.52Q72.33-41.37 71.80-41.37L71.80-41.37L71.80-41.37Q71.27-41.37 71.27-41.68L71.27-41.68L76.25-49.83L76.25-49.83Q81.39-57.83 81.39-63.87L81.39-63.87L81.39-63.87Q81.39-69.91 78.75-73.61L78.75-73.61L78.75-73.61Q76.10-77.31 70.37-77.31L70.37-77.31L70.37-77.31Q58.59-77.31 42.20-64.17L42.20-64.17L42.20-64.17Q25.82-51.04 17.29-31.86L17.29-31.86L17.29-31.86Q8.76-12.68 8.76-1.96L8.76-1.96L8.76-1.96Q8.76 14.19 25.22 14.19L25.22 14.19L25.22 14.19Q40.92 14.19 67.80-6.04L67.80-6.04L67.80-6.04Q79.73-14.95 106.61-39.71L106.61-39.71L106.61-39.71Q101.32-39.41 96.79-38.66L96.79-38.66L96.79-38.66Q87.13-36.84 87.73-39.26L87.73-39.26L87.73-39.26Q88.33-44.85 93.47-44.85L93.47-44.85L93.47-44.85Q103.44-43.64 110.23-43.64L110.23-43.64L110.23-43.64Q123.22-55.57 149.04-82.75L149.04-82.75L149.04-82.75Q166.40-101.02 170.18-101.02L170.18-101.02L170.18-101.02Q171.84-101.02 171.84-98.45L171.84-98.45L171.84-98.45Q171.84-95.88 170.48-90.45L170.48-90.45L170.48-90.45Q169.12-85.01 167.46-83.80L167.46-83.80L167.46-83.80Q163.99-81.39 160.97-77.24L160.97-77.24L160.97-77.24Q157.95-73.08 152.36-61.68L152.36-61.68L152.36-61.68Q146.77-50.28 142.85-43.19ZM154.93-80.03L154.93-80.03L116.27-43.79L125.18-43.79L125.18-43.79Q128.35-43.64 133.03-43.64L133.03-43.64L133.03-43.64Q137.41-52.25 154.93-80.03Z" fill="#ff0a2d"/>
    </g>
  </g>
</svg>