<svg width="789.25625px" height="260px" xmlns="http://www.w3.org/2000/svg" viewBox="-144.628125 -55 789.25625 260" style="background: rgba(0, 0, 0, 0);" preserveAspectRatio="xMidYMid"><defs><filter id="editing-extrude-glow"><feFlood flood-color="#77c4d3" result="flood-1"></feFlood><feMorphology operator="erode" radius="1" in="SourceAlpha" result="erode"></feMorphology><feComposite operator="in" in="flood-1" in2="erode" result="comp1"></feComposite><feConvolveMatrix order="0,0" divisor="1" in="comp1" result="convolve" kernelMatrix=""></feConvolveMatrix><feOffset dx="0" dy="0" in="convolve" result="extrude"></feOffset><feComposite operator="in" in="flood-1" in2="extrude" result="comp-extrude"></feComposite><feFlood flood-color="rgba(0%,0%,0%,0)" result="flood-2"></feFlood><feComposite operator="in" in="flood-2" in2="SourceAlpha" result="comp2"></feComposite><feMorphology operator="dilate" radius="1" in="comp2" result="dilate"></feMorphology><feOffset dx="0" dy="0" in="dilate" result="offset"></feOffset><feGaussianBlur in="offset" stdDeviation="5.8" result="blur"></feGaussianBlur><feComponentTransfer in="blur" result="shadow"><feFuncA type="linear" slope="0.8" intercept="-0.2"></feFuncA></feComponentTransfer><feMerge><feMergeNode in="shadow"></feMergeNode><feMergeNode in="comp-extrude"></feMergeNode><feMergeNode in="SourceGraphic"></feMergeNode></feMerge></filter></defs><g filter="url(#editing-extrude-glow)"><g transform="translate(-31.460029125213623, 133.28500366210938)"><path d="M21.74 0L3.77 0L39.56-106.45L39.56-106.45Q40.77-109.63 44.85-109.63L44.85-109.63L44.85-109.63Q46.51-109.63 61.00-108.72L61.00-108.72L97.09 0L79.43 0L69.61-31.71L31.41-31.71L21.74 0ZM50.28-93.32L35.48-45.30L65.38-45.30L50.28-94.22L50.28-93.32ZM115.97 0L115.97-54.96L115.97-54.96Q115.97-68.55 113.25-79.43L113.25-79.43L125.93-81.09L128.80-73.54L128.80-73.54Q141.49-82.45 154.77-82.45L154.77-82.45L154.77-82.45Q182.26-82.45 182.26-52.85L182.26-52.85L182.26 0L165.95 0L165.95-49.83L165.95-49.83Q165.95-69.76 150.09-69.76L150.09-69.76L150.09-69.76Q140.88-69.76 132.28-63.27L132.28-63.27L132.28 0L115.97 0ZM210.95-77.77L214.42-96.79L227.25-98.45L227.25-77.77L250.66-77.77L248.85-66.89L227.25-66.89L227.25-26.43L227.25-26.43Q227.25-18.27 229.75-14.57L229.75-14.57L229.75-14.57Q232.24-10.87 237.52-10.87L237.52-10.87L237.52-10.87Q242.81-10.87 249.45-12.08L249.45-12.08L251.41-1.06L251.41-1.06Q242.05 1.81 233.29 1.81L233.29 1.81L233.29 1.81Q221.06 1.81 216.01-4.68L216.01-4.68L216.01-4.68Q210.95-11.17 210.95-23.10L210.95-23.10L210.95-66.89L199.62-66.89L199.62-76.25L210.95-77.77ZM304.26-82.45L304.26-82.45L304.26-82.45Q319.06-82.45 328.73-72.10L328.73-72.10L328.73-72.10Q338.39-61.76 338.39-41.68L338.39-41.68L338.39-41.68Q338.39-21.59 328.50-9.89L328.50-9.89L328.50-9.89Q318.61 1.81 298.83 1.81L298.83 1.81L298.83 1.81Q284.03 1.81 274.37-8.68L274.37-8.68L274.37-8.68Q264.70-19.18 264.70-39.26L264.70-39.26L264.70-39.26Q264.70-59.34 274.59-70.89L274.59-70.89L274.59-70.89Q284.48-82.45 304.26-82.45ZM281.92-39.18L281.92-39.18L281.92-39.18Q281.92-24.01 286.98-17.44L286.98-17.44L286.98-17.44Q292.03-10.87 302.15-10.87L302.15-10.87L302.15-10.87Q312.27-10.87 316.72-18.72L316.72-18.72L316.72-18.72Q321.18-26.58 321.18-41.75L321.18-41.75L321.18-41.75Q321.18-56.93 316.12-63.34L316.12-63.34L316.12-63.34Q311.06-69.76 302.15-69.76L302.15-69.76L302.15-69.76Q290.83-69.76 286.37-62.06L286.37-62.06L286.37-62.06Q281.92-54.36 281.92-39.18ZM369.35-114.76L369.35-114.76L369.35-114.76Q373.12-114.76 375.69-112.42L375.69-112.42L375.69-112.42Q378.25-110.08 378.25-105.40L378.25-105.40L378.25-105.40Q378.25-95.58 367.99-95.58L367.99-95.58L367.99-95.58Q364.36-95.58 361.95-97.92L361.95-97.92L361.95-97.92Q359.53-100.26 359.53-104.79L359.53-104.79L359.53-104.79Q359.53-114.76 369.35-114.76ZM377.05 0L360.74 0L360.74-79.58L377.05-81.69L377.05 0ZM407.25 0L407.25-54.96L407.25-54.96Q407.25-68.55 404.53-79.43L404.53-79.43L417.21-81.09L420.08-73.54L420.08-73.54Q432.77-82.45 446.05-82.45L446.05-82.45L446.05-82.45Q473.54-82.45 473.54-52.85L473.54-52.85L473.54 0L457.23 0L457.23-49.83L457.23-49.83Q457.23-69.76 441.37-69.76L441.37-69.76L441.37-69.76Q432.16-69.76 423.56-63.27L423.56-63.27L423.56 0L407.25 0ZM553.57-17.21L553.57-17.21L559.15-6.95L559.15-6.95Q556.59-4.53 548.28-1.36L548.28-1.36L548.28-1.36Q539.98 1.81 530.46 1.81L530.46 1.81L530.46 1.81Q513.55 1.81 503.21-8.46L503.21-8.46L503.21-8.46Q492.86-18.72 492.86-39.26L492.86-39.26L492.86-39.26Q492.86-50.59 496.49-59.27L496.49-59.27L496.49-59.27Q500.11-67.95 505.85-72.78L505.85-72.78L505.85-72.78Q517.63-82.45 530.54-82.45L530.54-82.45L530.54-82.45Q543.45-82.45 551.07-75.88L551.07-75.88L551.07-75.88Q558.70-69.31 558.70-59.80L558.70-59.80L558.70-59.80Q558.70-47.26 546.77-39.34L546.77-39.34L546.77-39.34Q534.84-31.41 508.57-31.41L508.57-31.41L508.57-31.41Q508.57-24.46 514.38-17.67L514.38-17.67L514.38-17.67Q520.19-10.87 531.60-10.87L531.60-10.87L531.60-10.87Q543.00-10.87 553.57-17.21ZM544.05-58.44L544.05-58.44L544.05-58.44Q544.05-62.97 540.66-66.36L540.66-66.36L540.66-66.36Q537.26-69.76 531.07-69.76L531.07-69.76L531.07-69.76Q521.10-69.76 514.68-62.29L514.68-62.29L514.68-62.29Q508.27-54.81 508.12-42.73L508.12-42.73L508.12-42.73Q544.05-42.73 544.05-58.44Z" fill="#ffffff"></path></g></g><style>text {
  font-size: 64px;
  font-family: Arial Black;
  dominant-baseline: central;
  text-anchor: middle;
}</style></svg>