<svg width="255.89411621093748px" height="282.8px" xmlns="http://www.w3.org/2000/svg" viewBox="122.05294189453126 -66.4 255.89411621093748 282.8" style="background: rgba(211, 127, 127, 0);" preserveAspectRatio="xMidYMid"><defs><filter id="editing-extrude-glow"><feFlood flood-color="#ffd700" result="flood-1"></feFlood><feMorphology operator="erode" radius="1" in="SourceAlpha" result="erode"></feMorphology><feComposite operator="in" in="flood-1" in2="erode" result="comp1"></feComposite><feConvolveMatrix order="5,5" divisor="1" in="comp1" result="convolve" kernelMatrix="0 0 0 0 0 0 0 0 0 0 1 1 1 1 1 0 0 0 0 0 0 0 0 0 0"></feConvolveMatrix><feOffset dx="-5" dy="0" in="convolve" result="extrude"></feOffset><feComposite operator="in" in="flood-1" in2="extrude" result="comp-extrude"></feComposite><feFlood flood-color="rgba(0%,0%,0%,0)" result="flood-2"></feFlood><feComposite operator="in" in="flood-2" in2="SourceAlpha" result="comp2"></feComposite><feMorphology operator="dilate" radius="1" in="comp2" result="dilate"></feMorphology><feOffset dx="-7.5" dy="0" in="dilate" result="offset"></feOffset><feGaussianBlur in="offset" stdDeviation="5.8" result="blur"></feGaussianBlur><feComponentTransfer in="blur" result="shadow"><feFuncA type="linear" slope="0.8" intercept="-0.2"></feFuncA></feComponentTransfer><feMerge><feMergeNode in="shadow"></feMergeNode><feMergeNode in="comp-extrude"></feMergeNode><feMergeNode in="SourceGraphic"></feMergeNode></feMerge></filter></defs><g filter="url(#editing-extrude-glow)"><g transform="translate(161.5919370651245, 122.29999732971191)"><path d="M4.09-4.46L4.09-4.46L4.09-4.46Q4.88-6.04 5.74-8.03L5.74-8.03L5.74-8.03Q6.59-10.01 7.32-12.33L7.32-12.33L8.97-16.36L8.97-16.36Q7.87-18.01 6.74-19.93L6.74-19.93L6.74-19.93Q5.62-21.85 4.70-23.86L4.70-23.86L4.70-23.86Q3.78-25.88 3.20-27.89L3.20-27.89L3.20-27.89Q2.62-29.91 2.62-31.80L2.62-31.80L2.62-31.80Q2.62-31.92 3.57-32.01L3.57-32.01L3.57-32.01Q4.52-32.10 5.95-32.17L5.95-32.17L5.95-32.17Q7.39-32.23 9.06-32.26L9.06-32.26L9.06-32.26Q10.74-32.29 12.18-32.32L12.18-32.32L12.18-32.32Q13.61-32.35 14.56-32.38L14.56-32.38L14.56-32.38Q15.50-32.41 15.50-32.41L15.50-32.41L15.50-32.41Q16.91-36.07 18.25-39.37L18.25-39.37L18.25-39.37Q19.59-42.66 20.94-46.02L20.94-46.02L20.94-46.02Q22.28-49.38 23.62-52.89L23.62-52.89L23.62-52.89Q24.96-56.40 26.31-60.42L26.31-60.42L26.31-60.42Q28.87-67.99 31.31-73.73L31.31-73.73L31.31-73.73Q33.75-79.47 35.89-84.41L35.89-84.41L35.89-84.41Q36.13-85.02 36.71-85.54L36.71-85.54L36.71-85.54Q37.29-86.06 37.96-86.43L37.96-86.43L37.96-86.43Q38.64-86.79 39.28-87.04L39.28-87.04L39.28-87.04Q39.92-87.28 40.28-87.40L40.28-87.40L40.28-87.40Q40.53-87.46 42.14-87.95L42.14-87.95L42.14-87.95Q43.76-88.44 45.84-88.99L45.84-88.99L45.84-88.99Q47.91-89.54 49.96-89.97L49.96-89.97L49.96-89.97Q52.00-90.39 53.22-90.39L53.22-90.39L54.32-90.39L54.32-90.39Q55.30-90.39 56.18-89.94L56.18-89.94L56.18-89.94Q57.07-89.48 57.37-88.13L57.37-88.13L57.37-88.13Q60.30-80.63 63.63-71.75L63.63-71.75L63.63-71.75Q66.96-62.87 70.13-52.19L70.13-52.19L70.13-52.19Q71.84-46.45 73.49-41.32L73.49-41.32L73.49-41.32Q75.13-36.19 76.78-31.31L76.78-31.31L76.78-31.31Q78.43-26.43 80.11-21.55L80.11-21.55L80.11-21.55Q81.79-16.66 83.56-11.47L83.56-11.47L83.56-11.47Q84.11-9.28 84.69-8.00L84.69-8.00L84.69-8.00Q85.27-6.71 85.75-5.98L85.75-5.98L85.75-5.98Q86.24-5.25 86.55-4.91L86.55-4.91L86.55-4.91Q86.85-4.58 86.85-4.21L86.85-4.21L86.85-4.21Q86.85-3.85 85.69-3.48L85.69-3.48L72.57 0.79L72.57 0.79Q71.11 1.34 69.58 1.89L69.58 1.89L69.58 1.89Q68.05 2.44 66.71 2.87L66.71 2.87L66.71 2.87Q65.37 3.30 64.36 3.57L64.36 3.57L64.36 3.57Q63.35 3.85 62.93 3.85L62.93 3.85L62.56 3.85L62.56 3.85Q61.71 3.85 61.34 3.33L61.34 3.33L61.34 3.33Q60.97 2.81 60.85 2.32L60.85 2.32L60.85 2.32Q60.24 0.31 59.63-1.31L59.63-1.31L59.63-1.31Q59.02-2.93 58.44-4.55L58.44-4.55L58.44-4.55Q57.86-6.16 57.28-8.00L57.28-8.00L57.28-8.00Q56.70-9.83 56.15-12.33L56.15-12.33L56.15-12.33Q56.03-12.63 55.48-12.85L55.48-12.85L55.48-12.85Q54.93-13.06 54.17-13.18L54.17-13.18L54.17-13.18Q53.41-13.31 52.55-13.34L52.55-13.34L52.55-13.34Q51.70-13.37 50.96-13.37L50.96-13.37L50.96-13.37Q48.65-13.37 47.21-13.34L47.21-13.34L47.21-13.34Q45.78-13.31 44.68-13.28L44.68-13.28L44.68-13.28Q43.58-13.24 42.57-13.21L42.57-13.21L42.57-13.21Q41.56-13.18 40.10-13.18L40.10-13.18L40.10-13.18Q38.33-13.18 36.47-13.21L36.47-13.21L36.47-13.21Q34.61-13.24 33.08-13.31L33.08-13.31L29.60-13.43L29.60-13.43Q28.02-9.03 26.43-5.19L26.43-5.19L26.43-5.19Q24.84-1.34 23.01 2.75L23.01 2.75L23.01 2.75Q22.89 3.23 22.43 3.54L22.43 3.54L22.43 3.54Q21.97 3.85 21.48 3.85L21.48 3.85L21.48 3.85Q21.12 3.85 21.06 3.78L21.06 3.78L21.06 3.78Q15.14 1.65 11.11-0.43L11.11-0.43L11.11-0.43Q7.08-2.50 4.09-4.46ZM45.23-59.33L45.23-59.33L45.23-59.33Q43.76-53.89 42.33-49.47L42.33-49.47L42.33-49.47Q40.89-45.04 39.70-41.63L39.70-41.63L39.70-41.63Q38.51-38.21 37.66-35.86L37.66-35.86L37.66-35.86Q36.80-33.51 36.44-32.23L36.44-32.23L36.44-31.68L36.44-31.68Q36.44-31.31 36.38-31.19L36.38-31.19L51.03-31.19L51.03-31.19Q50.35-34.18 49.59-37.23L49.59-37.23L49.59-37.23Q48.83-40.28 48.10-43.64L48.10-43.64L48.10-43.64Q47.36-47.00 46.63-50.84L46.63-50.84L46.63-50.84Q45.90-54.69 45.23-59.33ZM127.75-38.70L124.76-4.88L124.76-4.88Q124.69-4.33 124.54-3.81L124.54-3.81L124.54-3.81Q124.39-3.30 123.72-2.99L123.72-2.99L123.72-2.99Q123.47-2.87 121.31-2.11L121.31-2.11L121.31-2.11Q119.14-1.34 116.30-0.34L116.30-0.34L116.30-0.34Q113.46 0.67 110.69 1.68L110.69 1.68L110.69 1.68Q107.91 2.69 106.45 3.23L106.45 3.23L106.45 3.23Q105.71 3.54 104.64 3.88L104.64 3.88L104.64 3.88Q103.58 4.21 102.54 4.21L102.54 4.21L102.54 4.21Q101.68 4.21 101.04 3.78L101.04 3.78L101.04 3.78Q100.40 3.36 100.40 2.20L100.40 2.20L100.40 2.20Q100.40-0.49 100.56-2.72L100.56-2.72L100.56-2.72Q100.71-4.94 100.95-7.39L100.95-7.39L100.95-7.39Q101.20-9.83 101.47-12.79L101.47-12.79L101.47-12.79Q101.75-15.75 101.99-19.84L101.99-19.84L101.99-19.84Q102.29-25.21 102.66-30.18L102.66-30.18L102.66-30.18Q103.03-35.16 103.39-40.53L103.39-40.53L104.25-50.96L104.25-50.96Q104.43-53.53 104.61-56.18L104.61-56.18L104.61-56.18Q104.80-58.84 104.98-61.65L104.98-61.65L105.65-69.09L105.65-69.09Q105.65-69.21 105.29-69.21L105.29-69.21L105.29-69.21Q104.80-69.21 103.64-69.00L103.64-69.00L103.64-69.00Q102.48-68.79 100.89-68.48L100.89-68.48L100.89-68.48Q99.30-68.18 97.38-67.84L97.38-67.84L97.38-67.84Q95.46-67.50 93.44-67.20L93.44-67.20L93.44-67.20Q92.96-67.20 92.50-67.41L92.50-67.41L92.50-67.41Q92.04-67.63 92.04-67.93L92.04-67.93L92.04-67.93Q92.04-68.18 92.16-68.30L92.16-68.30L102.05-85.57L102.05-85.57Q105.41-86.30 109.28-87.07L109.28-87.07L109.28-87.07Q113.16-87.83 117.61-88.44L117.61-88.44L117.61-88.44Q122.07-89.05 127.08-89.45L127.08-89.45L127.08-89.45Q132.08-89.84 137.70-89.84L137.70-89.84L137.70-89.84Q144.04-89.72 150.05-88.59L150.05-88.59L150.05-88.59Q156.07-87.46 160.74-84.81L160.74-84.81L160.74-84.81Q165.41-82.15 168.24-77.61L168.24-77.61L168.24-77.61Q171.08-73.06 171.08-66.10L171.08-66.10L171.08-66.10Q171.08-62.26 169.77-59.02L169.77-59.02L169.77-59.02Q168.46-55.79 166.41-53.19L166.41-53.19L166.41-53.19Q164.37-50.60 161.93-48.61L161.93-48.61L161.93-48.61Q159.48-46.63 157.26-45.23L157.26-45.23L157.26-45.23Q155.03-43.82 153.32-43.00L153.32-43.00L153.32-43.00Q151.61-42.18 151.00-41.93L151.00-41.93L151.00-41.93Q151.00-41.81 151.09-41.63L151.09-41.63L151.09-41.63Q151.18-41.44 151.49-40.92L151.49-40.92L151.49-40.92Q151.79-40.41 152.37-39.46L152.37-39.46L152.37-39.46Q152.95-38.51 153.87-36.87L153.87-36.87L153.87-36.87Q154.85-35.40 156.19-32.96L156.19-32.96L156.19-32.96Q157.53-30.52 159.39-27.19L159.39-27.19L159.39-27.19Q161.25-23.86 163.70-19.78L163.70-19.78L163.70-19.78Q166.14-15.69 169.31-10.99L169.31-10.99L169.31-10.99Q170.35-10.07 171.69-9.86L171.69-9.86L171.69-9.86Q173.03-9.64 174.19-9.61L174.19-9.61L174.19-9.61Q175.35-9.58 176.15-9.49L176.15-9.49L176.15-9.49Q176.94-9.40 176.94-8.73L176.94-8.73L176.94-8.73Q176.94-8.24 175.93-7.60L175.93-7.60L175.93-7.60Q174.93-6.96 173.58-6.29L173.58-6.29L173.58-6.29Q172.24-5.62 170.87-5.00L170.87-5.00L170.87-5.00Q169.49-4.39 168.76-4.03L168.76-4.03L168.76-4.03Q167.30-3.30 165.71-2.62L165.71-2.62L165.71-2.62Q164.12-1.95 162.29-1.13L162.29-1.13L162.29-1.13Q160.46-0.31 158.23 0.79L158.23 0.79L158.23 0.79Q156.01 1.89 153.20 3.42L153.20 3.42L153.20 3.42Q152.47 3.85 151.82 4.00L151.82 4.00L151.82 4.00Q151.18 4.15 150.63 4.15L150.63 4.15L150.63 4.15Q149.54 4.15 148.74 3.63L148.74 3.63L148.74 3.63Q147.95 3.11 147.40 2.38L147.40 2.38L147.40 2.38Q146.85 1.65 146.51 0.89L146.51 0.89L146.51 0.89Q146.18 0.12 145.94-0.37L145.94-0.37L127.75-38.70ZM130.92-72.14L128.48-46.20L128.48-46.20Q131.59-46.20 134.95-47.79L134.95-47.79L134.95-47.79Q138.31-49.38 141.05-51.88L141.05-51.88L141.05-51.88Q143.80-54.38 145.57-57.56L145.57-57.56L145.57-57.56Q147.34-60.73 147.34-63.96L147.34-63.96L147.34-63.96Q147.34-72.81 136.72-72.81L136.72-72.81L136.72-72.81Q134.70-72.81 133.36-72.54L133.36-72.54L133.36-72.54Q132.02-72.27 130.92-72.14L130.92-72.14Z" fill="#27b0ff"></path></g></g><style>text {
  font-size: 64px;
  font-family: Arial Black;
  dominant-baseline: central;
  text-anchor: middle;
}</style></svg>