<svg width="146px" height="282.8px" xmlns="http://www.w3.org/2000/svg" viewBox="177 -66.4 146 282.8" style="background: rgba(211, 127, 127, 0);" preserveAspectRatio="xMidYMid"><defs><filter id="editing-extrude-glow"><feFlood flood-color="#fff6e6" result="flood-1"></feFlood><feMorphology operator="erode" radius="1" in="SourceAlpha" result="erode"></feMorphology><feComposite operator="in" in="flood-1" in2="erode" result="comp1"></feComposite><feConvolveMatrix order="5,5" divisor="1" in="comp1" result="convolve" kernelMatrix="0 0 0 0 0 0 0 0 0 0 1 1 1 1 1 0 0 0 0 0 0 0 0 0 0"></feConvolveMatrix><feOffset dx="-5" dy="0" in="convolve" result="extrude"></feOffset><feComposite operator="in" in="flood-1" in2="extrude" result="comp-extrude"></feComposite><feFlood flood-color="rgba(0%,0%,0%,0)" result="flood-2"></feFlood><feComposite operator="in" in="flood-2" in2="SourceAlpha" result="comp2"></feComposite><feMorphology operator="dilate" radius="1" in="comp2" result="dilate"></feMorphology><feOffset dx="-7.5" dy="0" in="dilate" result="offset"></feOffset><feGaussianBlur in="offset" stdDeviation="5.8" result="blur"></feGaussianBlur><feComponentTransfer in="blur" result="shadow"><feFuncA type="linear" slope="0.8" intercept="-0.2"></feFuncA></feComponentTransfer><feMerge><feMergeNode in="shadow"></feMergeNode><feMergeNode in="comp-extrude"></feMergeNode><feMergeNode in="SourceGraphic"></feMergeNode></feMerge></filter></defs><g filter="url(#editing-extrude-glow)"><g transform="translate(201.47179126739502, 122.02499580383301)"><path d="M43.15-38.70L40.16-4.88L40.16-4.88Q40.10-4.33 39.95-3.81L39.95-3.81L39.95-3.81Q39.79-3.30 39.12-2.99L39.12-2.99L39.12-2.99Q38.88-2.87 36.71-2.11L36.71-2.11L36.71-2.11Q34.55-1.34 31.71-0.34L31.71-0.34L31.71-0.34Q28.87 0.67 26.09 1.68L26.09 1.68L26.09 1.68Q23.32 2.69 21.85 3.23L21.85 3.23L21.85 3.23Q21.12 3.54 20.05 3.88L20.05 3.88L20.05 3.88Q18.98 4.21 17.94 4.21L17.94 4.21L17.94 4.21Q17.09 4.21 16.45 3.78L16.45 3.78L16.45 3.78Q15.81 3.36 15.81 2.20L15.81 2.20L15.81 2.20Q15.81-0.49 15.96-2.72L15.96-2.72L15.96-2.72Q16.11-4.94 16.36-7.39L16.36-7.39L16.36-7.39Q16.60-9.83 16.88-12.79L16.88-12.79L16.88-12.79Q17.15-15.75 17.40-19.84L17.40-19.84L17.40-19.84Q17.70-25.21 18.07-30.18L18.07-30.18L18.07-30.18Q18.43-35.16 18.80-40.53L18.80-40.53L19.65-50.96L19.65-50.96Q19.84-53.53 20.02-56.18L20.02-56.18L20.02-56.18Q20.20-58.84 20.39-61.65L20.39-61.65L21.06-69.09L21.06-69.09Q21.06-69.21 20.69-69.21L20.69-69.21L20.69-69.21Q20.20-69.21 19.04-69.00L19.04-69.00L19.04-69.00Q17.88-68.79 16.30-68.48L16.30-68.48L16.30-68.48Q14.71-68.18 12.79-67.84L12.79-67.84L12.79-67.84Q10.86-67.50 8.85-67.20L8.85-67.20L8.85-67.20Q8.36-67.20 7.90-67.41L7.90-67.41L7.90-67.41Q7.45-67.63 7.45-67.93L7.45-67.93L7.45-67.93Q7.45-68.18 7.57-68.30L7.57-68.30L17.46-85.57L17.46-85.57Q20.81-86.30 24.69-87.07L24.69-87.07L24.69-87.07Q28.56-87.83 33.02-88.44L33.02-88.44L33.02-88.44Q37.48-89.05 42.48-89.45L42.48-89.45L42.48-89.45Q47.49-89.84 53.10-89.84L53.10-89.84L53.10-89.84Q59.45-89.72 65.46-88.59L65.46-88.59L65.46-88.59Q71.47-87.46 76.14-84.81L76.14-84.81L76.14-84.81Q80.81-82.15 83.65-77.61L83.65-77.61L83.65-77.61Q86.49-73.06 86.49-66.10L86.49-66.10L86.49-66.10Q86.49-62.26 85.17-59.02L85.17-59.02L85.17-59.02Q83.86-55.79 81.82-53.19L81.82-53.19L81.82-53.19Q79.77-50.60 77.33-48.61L77.33-48.61L77.33-48.61Q74.89-46.63 72.66-45.23L72.66-45.23L72.66-45.23Q70.43-43.82 68.73-43.00L68.73-43.00L68.73-43.00Q67.02-42.18 66.41-41.93L66.41-41.93L66.41-41.93Q66.41-41.81 66.50-41.63L66.50-41.63L66.50-41.63Q66.59-41.44 66.89-40.92L66.89-40.92L66.89-40.92Q67.20-40.41 67.78-39.46L67.78-39.46L67.78-39.46Q68.36-38.51 69.27-36.87L69.27-36.87L69.27-36.87Q70.25-35.40 71.59-32.96L71.59-32.96L71.59-32.96Q72.94-30.52 74.80-27.19L74.80-27.19L74.80-27.19Q76.66-23.86 79.10-19.78L79.10-19.78L79.10-19.78Q81.54-15.69 84.72-10.99L84.72-10.99L84.72-10.99Q85.75-10.07 87.10-9.86L87.10-9.86L87.10-9.86Q88.44-9.64 89.60-9.61L89.60-9.61L89.60-9.61Q90.76-9.58 91.55-9.49L91.55-9.49L91.55-9.49Q92.35-9.40 92.35-8.73L92.35-8.73L92.35-8.73Q92.35-8.24 91.34-7.60L91.34-7.60L91.34-7.60Q90.33-6.96 88.99-6.29L88.99-6.29L88.99-6.29Q87.65-5.62 86.27-5.00L86.27-5.00L86.27-5.00Q84.90-4.39 84.17-4.03L84.17-4.03L84.17-4.03Q82.70-3.30 81.12-2.62L81.12-2.62L81.12-2.62Q79.53-1.95 77.70-1.13L77.70-1.13L77.70-1.13Q75.87-0.31 73.64 0.79L73.64 0.79L73.64 0.79Q71.41 1.89 68.60 3.42L68.60 3.42L68.60 3.42Q67.87 3.85 67.23 4.00L67.23 4.00L67.23 4.00Q66.59 4.15 66.04 4.15L66.04 4.15L66.04 4.15Q64.94 4.15 64.15 3.63L64.15 3.63L64.15 3.63Q63.35 3.11 62.81 2.38L62.81 2.38L62.81 2.38Q62.26 1.65 61.92 0.89L61.92 0.89L61.92 0.89Q61.58 0.12 61.34-0.37L61.34-0.37L43.15-38.70ZM46.33-72.14L43.88-46.20L43.88-46.20Q47.00-46.20 50.35-47.79L50.35-47.79L50.35-47.79Q53.71-49.38 56.46-51.88L56.46-51.88L56.46-51.88Q59.20-54.38 60.97-57.56L60.97-57.56L60.97-57.56Q62.74-60.73 62.74-63.96L62.74-63.96L62.74-63.96Q62.74-72.81 52.12-72.81L52.12-72.81L52.12-72.81Q50.11-72.81 48.77-72.54L48.77-72.54L48.77-72.54Q47.42-72.27 46.33-72.14L46.33-72.14Z" fill="#27b0ff"></path></g></g><style>text {
  font-size: 64px;
  font-family: Arial Black;
  dominant-baseline: central;
  text-anchor: middle;
}</style></svg>